<?xml version="1.0" standalone="no"?>
<svg xmlns="http://www.w3.org/2000/svg" viewBox="0 0 161.88 29" width="161.88" height="29"><g fill="#000000" color="#000000" transform="translate(0, 0) scale(0.29)"><svg width="100.0" height="100.0" x="0.0" y="0.0" viewBox="0 0 100 100"><title></title><path d="M91.46,36.09a38,38,0,0,0-35.13-35A37.61,37.61,0,0,0,27.8,11.19a38,38,0,0,0-12,27.71,12.61,12.61,0,0,1-1.1,5.16L9,56.69a6.8,6.8,0,0,0,4.07,9.22l2.65.88V77a10,10,0,0,0,10,10H36l1.94,6.81a7.24,7.24,0,0,0,9,5L82.17,88.65a7.25,7.25,0,0,0,5-9L82.52,63.46A38.05,38.05,0,0,0,91.46,36.09Zm-16,23.71L73.94,61.4l5.7,20L45.21,91.21l-3.41-12H25.72A2.28,2.28,0,0,1,23.44,77V65.21A5.5,5.5,0,0,0,19.66,60l-3.21-1.06L21.67,47.2a20.25,20.25,0,0,0,1.76-8.29A30.22,30.22,0,0,1,55.8,8.76a30.28,30.28,0,0,1,28,27.89A29.94,29.94,0,0,1,75.47,59.81ZM72.56,35.26l-3.14-.55A16.26,16.26,0,0,0,67.8,30.8l1.83-2.61a2.41,2.41,0,0,0-.27-3.09l-1.88-1.88A2.41,2.41,0,0,0,64.39,23l-2.61,1.83a16.24,16.24,0,0,0-3.91-1.62L57.33,20A2.41,2.41,0,0,0,55,18H52.29a2.41,2.41,0,0,0-2.38,2l-.55,3.13a16.25,16.25,0,0,0-3.91,1.62L42.85,23a2.41,2.41,0,0,0-3.09.27l-1.88,1.88a2.41,2.41,0,0,0-.27,3.09l1.83,2.61a16.25,16.25,0,0,0-1.62,3.91l-3.13.55a2.41,2.41,0,0,0-2,2.38v2.66a2.41,2.41,0,0,0,2,2.38l3.13.55a16.24,16.24,0,0,0,1.62,3.91l-1.83,2.61a2.41,2.41,0,0,0,.27,3.09l1.88,1.88a2.41,2.41,0,0,0,3.09.27l2.61-1.83a16.27,16.27,0,0,0,3.91,1.62l.55,3.13a2.41,2.41,0,0,0,2.38,2H55a2.41,2.41,0,0,0,2.38-2l.55-3.13a16.24,16.24,0,0,0,3.91-1.62L64.39,55a2.41,2.41,0,0,0,3.09-.27l1.88-1.88a2.41,2.41,0,0,0,.27-3.09L67.8,47.13a16.26,16.26,0,0,0,1.62-3.91l3.14-.55a2.41,2.41,0,0,0,2-2.38V37.63A2.41,2.41,0,0,0,72.56,35.26ZM53.62,46.14A7.18,7.18,0,1,1,60.8,39,7.18,7.18,0,0,1,53.62,46.14Z"></path></svg></g><line x1="41" y1="1" x2="41" y2="28" stroke="#000000" stroke-linecap="round"></line><path fill="#000000" fill-rule="nonzero" d="M18.46 15.26L18.46 15.26L18.46 1.46L11.21 19.90L10.58 19.90L3.60 2.06L3.60 15.26Q3.60 17.16 3.70 18.07L3.70 18.07L5.93 18.36Q6.07 18.79 5.93 19.22L5.93 19.22Q3.86 19.18 3 19.18L3 19.18Q1.56 19.18 0.10 19.25L0.10 19.25Q0 18.72 0.10 18.36L0.10 18.36L2.28 18.12L2.28 3.98Q2.28 2.09 2.18 1.18L2.18 1.18L0.19 0.89Q0.05 0.48 0.19 0.07L0.19 0.07L5.47 0.07L11.50 15.86L17.66 0.07Q18.22 0.10 19.34 0.10L19.34 0.10Q19.58 0.10 23.11 0.02L23.11 0.02Q23.26 0.46 23.11 0.89L23.11 0.89L21.12 1.18Q21.02 2.09 21.02 3.98L21.02 3.98L21.02 18.12L22.97 18.36Q23.06 18.72 22.97 19.25L22.97 19.25Q21.46 19.18 19.68 19.18L19.68 19.18Q18.38 19.18 16.37 19.22L16.37 19.22Q16.22 18.62 16.37 18.36L16.37 18.36L18.36 18.07Q18.46 17.16 18.46 15.26ZM30.17 4.18L30.17 4.18L33.34 9.60L38.35 1.13L36.41 0.89Q36.31 0.53 36.41 0L36.41 0Q37.73 0.10 39.05 0.10L39.05 0.10Q40.20 0.10 41.74 0.02L41.74 0.02Q41.88 0.46 41.74 0.89L41.74 0.89L40.25 1.18Q39.22 2.35 38.66 3.31L38.66 3.31L33.96 10.99L33.96 18.12L35.90 18.36Q36 18.72 35.90 19.25L35.90 19.25Q34.39 19.18 32.62 19.18L32.62 19.18Q31.32 19.18 29.30 19.22L29.30 19.22Q29.16 18.79 29.30 18.36L29.30 18.36L31.30 18.07Q31.39 17.16 31.39 15.26L31.39 15.26L31.39 10.92L25.66 1.13L23.95 0.89Q23.86 0.53 23.95 0L23.95 0Q25.27 0.10 27.55 0.10L27.55 0.10Q29.64 0.10 31.20 0.02L31.20 0.02Q31.34 0.46 31.20 0.89L31.20 0.89L28.85 1.34Q29.59 3.19 30.17 4.18ZM47.76 5.64L47.78 0.07L64.37 0.07L64.39 5.64Q63.86 5.74 63.50 5.64L63.50 5.64L62.38 1.30L57.38 1.30L57.38 18.12L59.81 18.36Q59.90 18.72 59.81 19.25L59.81 19.25Q58.30 19.18 56.16 19.18L56.16 19.18Q54.50 19.18 52.49 19.22L52.49 19.22Q52.34 18.79 52.49 18.36L52.49 18.36L54.72 18.07Q54.82 17.16 54.82 15.26L54.82 15.26L54.82 1.30L49.78 1.30L48.65 5.64Q48.29 5.74 47.76 5.64L47.76 5.64ZM73.80 12.41L73.80 12.41L66.26 12.41Q66.05 18.53 69.94 18.53L69.94 18.53Q71.59 18.53 73.32 17.06L73.32 17.06Q73.68 17.28 73.87 17.81L73.87 17.81Q72.22 19.66 69.67 19.66L69.67 19.66Q63.82 19.66 63.82 12.77L63.82 12.77Q63.82 9.50 65.54 7.69Q67.27 5.88 69.58 5.88L69.58 5.88Q72.10 5.88 73.20 7.63Q74.30 9.38 74.30 12.19L74.30 12.19Q74.06 12.38 73.80 12.41ZM69.53 6.84L69.53 6.84Q68.28 6.84 67.40 8.14Q66.53 9.43 66.34 11.45L66.34 11.45L69.31 11.45Q71.09 11.45 71.86 11.23L71.86 11.23Q71.86 9.26 71.26 8.05Q70.66 6.84 69.53 6.84ZM78.58 15.98L78.58 15.98Q78.58 17.23 79.03 17.75Q79.49 18.26 80.47 18.26L80.47 18.26Q81.19 18.26 82.07 17.82Q82.94 17.38 83.69 16.54L83.69 16.54L83.69 12.79Q81.22 12.94 79.90 13.67Q78.58 14.40 78.58 15.98ZM83.69 11.93L83.69 11.93L83.69 10.70Q83.69 8.66 83.22 7.74Q82.75 6.82 81.67 6.82L81.67 6.82Q80.57 6.82 79.90 7.52Q79.22 8.23 78.98 9.94L78.98 9.94Q78.22 10.10 77.86 10.10L77.86 10.10Q76.92 10.10 76.75 9.43L76.75 9.43Q76.75 7.80 78.17 6.84Q79.58 5.88 81.70 5.88L81.70 5.88Q84.02 5.88 85.00 6.83Q85.97 7.78 85.97 10.22L85.97 10.22L85.97 16.99Q85.97 17.59 86.04 18.02L86.04 18.02L87.94 18.26Q88.03 18.62 87.94 19.18L87.94 19.18Q86.23 19.25 84.31 19.51L84.31 19.51Q84.12 19.32 84.07 19.03L84.07 19.03L83.95 17.38Q81.96 19.66 79.51 19.66L79.51 19.66Q78.00 19.66 77.15 18.79Q76.30 17.93 76.30 16.46L76.30 16.46Q76.30 14.26 78.30 13.13Q80.30 12.00 83.69 11.93ZM106.68 15.00L106.68 10.61Q106.68 7.27 104.54 7.27L104.54 7.27Q102.72 7.27 101.09 9.79L101.09 9.79L101.09 17.95L103.03 18.31Q103.13 18.70 103.03 19.27L103.03 19.27Q101.52 19.20 99.96 19.20L99.96 19.20Q98.86 19.20 96.84 19.25L96.84 19.25Q96.70 18.79 96.84 18.31L96.84 18.31L98.74 18.05Q98.83 16.73 98.83 15.00L98.83 15.00L98.83 10.61Q98.83 7.27 96.70 7.27L96.70 7.27Q95.62 7.27 94.80 7.93Q93.98 8.59 93.12 9.98L93.12 9.98L93.12 17.95L95.06 18.31Q95.16 18.70 95.06 19.27L95.06 19.27Q93.55 19.20 91.99 19.20L91.99 19.20Q90.89 19.20 88.87 19.25L88.87 19.25Q88.73 18.79 88.87 18.31L88.87 18.31L90.77 18.05Q90.86 16.73 90.86 15.00L90.86 15.00L90.86 8.42Q90.86 7.94 90.79 7.54L90.79 7.54L88.90 7.30Q88.80 6.94 88.90 6.38L88.90 6.38Q90.50 6.26 93.00 5.88L93.00 5.88Q93.22 6.12 93.24 6.36L93.24 6.36Q93.12 6.98 93.12 8.50L93.12 8.50Q95.02 5.88 97.39 5.88L97.39 5.88Q98.64 5.88 99.67 6.52Q100.70 7.15 100.99 8.47L100.99 8.47Q102.91 5.88 105.24 5.88L105.24 5.88Q106.70 5.88 107.82 6.74Q108.94 7.61 108.94 9.41L108.94 9.41L108.94 17.95L110.88 18.31Q110.98 18.70 110.88 19.27L110.88 19.27Q109.37 19.20 107.81 19.20L107.81 19.20Q106.70 19.20 104.69 19.25L104.69 19.25Q104.54 18.79 104.69 18.31L104.69 18.31L106.58 18.05Q106.68 16.73 106.68 15.00L106.68 15.00Z" transform="translate(51, 4.552)"></path></svg>