<svg xmlns="http://www.w3.org/2000/svg" viewBox="0 0 42.27 42.27"><defs><style>.cls-1{fill:#ffdc74;}.cls-2{fill:#5f5232;}.cls-3{fill:#867537;}</style></defs><g id="Calque_2" data-name="Calque 2"><g id="Layer_1" data-name="Layer 1"><circle class="cls-1" cx="21.13" cy="21.13" r="21.13"/><path class="cls-2" d="M14.27,17.33a3.52,3.52,0,1,1-3.53,3.52A3.52,3.52,0,0,1,14.27,17.33Z"/><path class="cls-3" d="M34.66,18a10,10,0,0,0-8.23-2.21c-.41.08-.77-1.42-.28-1.52a11.58,11.58,0,0,1,9.51,2.55C36,17.15,35,18.27,34.66,18Z"/><path class="cls-3" d="M15.84,11.84a10,10,0,0,0-8.23,2.21c-.32.27-1.38-.85-1-1.18a11.58,11.58,0,0,1,9.51-2.55C16.61,10.42,16.25,11.92,15.84,11.84Z"/><path class="cls-2" d="M33.94,22.73C32.71,20.26,30.87,19,29,19s-3.69,1.24-4.92,3.71c-.12.24.51.69.83.45A6.54,6.54,0,0,1,29,21.89a6.54,6.54,0,0,1,4.09,1.29C33.43,23.42,34.06,23,33.94,22.73Z"/><path class="cls-2" d="M29.68,28.33c-4.89,2.57-11.52,2-13.48,2-.52,0-.83.22-.7.66,1.41,4.9,12,4.9,14.88-1.93C30.71,28.34,30.13,28.09,29.68,28.33Z"/></g></g></svg>