<svg xmlns="http://www.w3.org/2000/svg" viewBox="0 0 42.27 42.27"><defs><style>.cls-1{fill:#ffdc74;}.cls-2{fill:#5f5232;}</style></defs><g id="Calque_2" data-name="Calque 2"><g id="Layer_1" data-name="Layer 1"><circle class="cls-1" cx="21.13" cy="21.13" r="21.13"/><path class="cls-2" d="M13,13.8a3.53,3.53,0,1,1-3.52,3.52A3.53,3.53,0,0,1,13,13.8Z"/><path class="cls-2" d="M29.24,13.8a3.53,3.53,0,1,1-3.53,3.52A3.53,3.53,0,0,1,29.24,13.8Z"/><path class="cls-2" d="M30,27a14.69,14.69,0,0,1-17.73,0c-.68-.48-1.3.35-.84,1.11a11.43,11.43,0,0,0,19.41,0C31.3,27.32,30.68,26.49,30,27Z"/></g></g></svg>