<svg xmlns="http://www.w3.org/2000/svg" viewBox="0 0 42.27 42.27"><defs><style>.cls-1{fill:#ffde70;}.cls-2{fill:#695730;}.cls-3{fill:#8e782e;}</style></defs><g id="Calque_2" data-name="Calque 2"><g id="Layer_1" data-name="Layer 1"><circle class="cls-1" cx="21.13" cy="21.13" r="21.13"/><path class="cls-2" d="M16.58,18.56c1,2.06-.28,4.66-2.77,5.83s-5.28.43-6.24-1.62C7,21.46,16,17.26,16.58,18.56Z"/><path class="cls-2" d="M25.68,18.56c-.95,2.06.29,4.66,2.78,5.83s5.28.43,6.24-1.62C35.31,21.46,26.29,17.26,25.68,18.56Z"/><path class="cls-3" d="M14.61,12.55A14.85,14.85,0,0,1,5.12,17c-.41,0-.51,1.54,0,1.55a16.39,16.39,0,0,0,10.68-5C16.12,13.15,14.87,12.23,14.61,12.55Z"/><path class="cls-3" d="M27.66,12.55A14.85,14.85,0,0,0,37.15,17c.41,0,.51,1.54,0,1.55a16.39,16.39,0,0,1-10.68-5C26.15,13.15,27.4,12.23,27.66,12.55Z"/><path class="cls-2" d="M27.18,31.3a14.36,14.36,0,0,0-12.11,0c-1,.45.23,2.92,1.17,2.47a11.79,11.79,0,0,1,9.77,0C27,34.2,28.18,31.78,27.18,31.3Z"/></g></g></svg>