<svg xmlns="http://www.w3.org/2000/svg" viewBox="0 0 42.27 42.27"><defs><style>.cls-1{fill:#ffdc74;}.cls-2{fill:#5f5232;}.cls-3{fill:#473c30;}.cls-4{fill:#f27684;}.cls-5{fill:#fff;}</style></defs><g id="Calque_2" data-name="Calque 2"><g id="Layer_1" data-name="Layer 1"><circle class="cls-1" cx="21.13" cy="21.13" r="21.13" transform="translate(-4.26 36.9) rotate(-76.84)"/><path class="cls-2" d="M33.6,22.85c-.29-.37-.79-.3-1.35-.3H10c-.55,0-1.06-.07-1.34.3-2.76,3.51.48,13.78,12.46,13.78S36.35,26.36,33.6,22.85Z"/><path class="cls-3" d="M22.43,28c-.41,0-1,.37-.8,1.37.11.51.83,1.13.83,1.95a1.33,1.33,0,0,1-2.66,0c0-.82.73-1.44.84-1.95.23-1-.4-1.38-.8-1.37a3.32,3.32,0,0,0-2.93,3.24,4.22,4.22,0,0,0,8.44,0A3.31,3.31,0,0,0,22.43,28Z"/><path class="cls-4" d="M15.7,34.28a13.55,13.55,0,0,0,5.43,1.07,13.56,13.56,0,0,0,5.44-1.07,12.55,12.55,0,0,0-5.44-1.17A12.53,12.53,0,0,0,15.7,34.28Z"/><path class="cls-5" d="M31.67,24H10.6c-1.45,0-1.45,2.82,0,2.82H31.71C33.12,26.77,33.12,24,31.67,24Z"/><path class="cls-2" d="M13,11.27a3.53,3.53,0,1,1-3.52,3.52A3.53,3.53,0,0,1,13,11.27Z"/><path class="cls-2" d="M29.24,11.27a3.53,3.53,0,1,1-3.53,3.52A3.53,3.53,0,0,1,29.24,11.27Z"/></g></g></svg>