<svg xmlns="http://www.w3.org/2000/svg" viewBox="0 0 42.27 42.27"><defs><style>.cls-1{fill:#ffdc74;}.cls-2{fill:#5f5232;}.cls-3{fill:#473c30;}.cls-4{fill:#f27684;}.cls-5{fill:#fff;}.cls-6{fill:#5caee1;}</style></defs><g id="Calque_2" data-name="Calque 2"><g id="Layer_1" data-name="Layer 1"><circle class="cls-1" cx="21.13" cy="21.13" r="21.13"/><path class="cls-2" d="M33.6,22.85c-.28-.37-.79-.3-1.35-.3H10c-.55,0-1.06-.07-1.34.3-2.76,3.51.48,13.78,12.46,13.78S36.36,26.36,33.6,22.85Z"/><path class="cls-3" d="M22.43,28c-.4,0-1,.37-.8,1.37.11.51.84,1.13.84,1.95a1.34,1.34,0,0,1-2.67,0c0-.82.73-1.44.84-1.95.23-1-.4-1.38-.8-1.37a3.31,3.31,0,0,0-2.93,3.24,4.22,4.22,0,0,0,8.44,0A3.29,3.29,0,0,0,22.43,28Z"/><path class="cls-4" d="M15.7,34.28a13.55,13.55,0,0,0,5.43,1.07,13.56,13.56,0,0,0,5.44-1.07,12.55,12.55,0,0,0-5.44-1.17A12.53,12.53,0,0,0,15.7,34.28Z"/><path class="cls-5" d="M31.67,24H10.6c-1.45,0-1.45,2.82,0,2.82H31.71C33.12,26.77,33.12,24,31.67,24Z"/><path class="cls-6" d="M40.47,24.57c5.14,5.41-1.85,12.76-7,7.35-3.76-4-3.93-11.48-3.93-11.48S36.71,20.62,40.47,24.57Z"/><path class="cls-6" d="M8.8,31.92C3.65,37.33-3.35,30,1.8,24.57c3.76-3.95,10.93-4.13,10.93-4.13S12.56,28,8.8,31.92Z"/><path class="cls-2" d="M18.69,18.79c-1.31-3.6-3.29-5.41-5.26-5.41s-3.95,1.81-5.25,5.41c-.13.36.54,1,.88.66a5.81,5.81,0,0,1,4.37-1.87,5.79,5.79,0,0,1,4.37,1.87C18.14,19.8,18.82,19.15,18.69,18.79Z"/><path class="cls-2" d="M34.09,18.79c-1.31-3.6-3.28-5.41-5.25-5.41s-3.95,1.81-5.26,5.41c-.13.36.55,1,.89.66a6,6,0,0,1,8.74,0C33.55,19.8,34.22,19.15,34.09,18.79Z"/></g></g></svg>