<svg xmlns="http://www.w3.org/2000/svg" viewBox="0 0 42.27 42.27"><defs><style>.cls-1{fill:#ffdc74;}.cls-2{fill:#f27684;}.cls-3{fill:#e56273;}.cls-4{fill:#5f5232;}</style></defs><g id="Calque_2" data-name="Calque 2"><g id="Layer_1" data-name="Layer 1"><path class="cls-1" d="M42.27,21.13A21.14,21.14,0,1,1,21.13,0,21.15,21.15,0,0,1,42.27,21.13Z"/><path class="cls-2" d="M28.18,32.32c-3.54-3.54-1.95-2,1.78-5.69s2.15-5.32,5.69-1.78,3.65,7,1.58,9S31.72,35.86,28.18,32.32Z"/><polygon class="cls-3" points="30.71 25.88 35.53 32.2 29.21 27.38 30.71 25.88"/><path class="cls-4" d="M18.69,16.1c-1.31-3.6-3.29-5.4-5.26-5.4s-3.95,1.8-5.26,5.4c-.12.36.55,1,.89.66a5.81,5.81,0,0,1,4.37-1.87,5.79,5.79,0,0,1,4.37,1.87C18.14,17.12,18.82,16.46,18.69,16.1Z"/><path class="cls-4" d="M34.09,16.1c-1.31-3.6-3.28-5.4-5.25-5.4s-3.95,1.8-5.26,5.4c-.13.36.55,1,.89.66a6,6,0,0,1,8.74,0C33.55,17.12,34.22,16.46,34.09,16.1Z"/><path class="cls-4" d="M32.48,21.85c-3,4.3-6.65,5.39-11.35,5.39s-8.3-1.08-11.34-5.39a.74.74,0,0,0-1.3.65c1.6,5.64,7,8.92,12.64,8.92s11.05-3.28,12.65-8.92A.74.74,0,0,0,32.48,21.85Z"/></g></g></svg>